<svg xmlns="http://www.w3.org/2000/svg" viewBox="0 0 960 600" role="img" aria-label="Contiguous United States map">
  <!-- Simplified contiguous US map illustration created for this dashboard (original work, no runtime external asset dependency). -->
  <rect x="0" y="0" width="960" height="600" fill="#f7fbff"/>

  <path
    d="M94 301
       C108 262 138 227 183 205
       C218 188 255 184 287 170
       C323 154 360 141 402 141
       C444 142 485 152 523 166
       C560 180 599 187 641 190
       C684 193 725 203 762 221
       C796 239 827 263 849 289
       C868 312 879 336 877 360
       C874 387 858 411 842 434
       C824 459 803 483 775 499
       C747 515 714 519 681 514
       C650 510 618 504 586 510
       C551 516 521 529 501 550
       C493 559 483 564 472 563
       C460 561 451 553 445 542
       C436 526 422 515 406 510
       C381 503 355 504 329 508
       C301 512 272 509 246 500
       C221 491 201 476 181 461
       C163 448 145 437 131 419
       C117 401 106 380 99 358
       C92 338 90 320 94 301 Z"
    fill="#d8dde5"
    stroke="#9aa4b2"
    stroke-width="2.5"
    stroke-linejoin="round"
  />

  <g stroke="#ffffff" stroke-width="1.2" fill="none" opacity="0.82">
    <path d="M148 416 L804 416"/>
    <path d="M132 388 L827 388"/>
    <path d="M119 360 L847 360"/>
    <path d="M112 334 L860 334"/>
    <path d="M114 306 L854 306"/>
    <path d="M127 279 L838 279"/>
    <path d="M146 252 L809 252"/>
    <path d="M172 227 L775 227"/>
    <path d="M205 205 L736 205"/>

    <path d="M206 196 L188 470"/>
    <path d="M246 182 L232 500"/>
    <path d="M286 170 L278 509"/>
    <path d="M326 156 L323 512"/>
    <path d="M366 146 L368 509"/>
    <path d="M406 143 L412 511"/>
    <path d="M446 145 L456 558"/>
    <path d="M486 153 L492 561"/>
    <path d="M526 167 L525 540"/>
    <path d="M566 180 L561 516"/>
    <path d="M606 188 L600 508"/>
    <path d="M646 191 L640 507"/>
    <path d="M686 195 L681 514"/>
    <path d="M726 204 L719 519"/>
    <path d="M766 222 L756 505"/>
  </g>
</svg>
